<svg width="120" height="43" viewBox="0 0 120 43" fill="none" xmlns="http://www.w3.org/2000/svg">
<path d="M88.409 10.6798C86.8688 9.41891 84.7955 8.87731 82.0959 8.68267C84.8547 4.99296 88.4344 2.13259 93.8336 0.101562L96.7024 5.53457C93.0211 6.87166 90.4147 8.49649 88.4005 10.6798H88.409ZM79.4725 12.8463C78.22 15.165 77.1029 17.7207 75.9605 20.5303C75.0127 22.6121 73.7856 25.3117 72.6008 27.5035C70.7221 31.7179 67.1509 34.5444 61.5233 36.5839L64.409 42.0339C74.6234 38.2003 78.3216 31.3879 82.2905 21.6136C83.1537 19.701 84.3131 17.213 85.3709 15.182C85.2694 14.8435 85.1509 14.5557 84.9901 14.3272C84.2877 13.354 82.9929 12.8801 79.4809 12.8463H79.4725Z" fill="#EF2AC1"/>
<path d="M61.3963 8.88574H55.9633V33.3089H61.3963V8.88574Z" fill="white"/>
<path d="M31.3201 8.88574H25.8871V33.3089H31.3201V8.88574Z" fill="white"/>
<path d="M118.189 12.0084C116.15 9.44424 112.062 8.91956 107.095 8.91956C101.154 8.91956 96.5078 10.7983 96.4655 10.8152V33.3088H102.245V14.2002C102.245 13.8871 102.457 13.6078 102.762 13.5401C103.819 13.2947 105.165 13.1763 107.086 13.1763C110.911 13.1763 112.68 13.6502 113.408 14.6657C114.161 15.7066 114.161 18.1015 114.161 21.4189V33.3173H119.941V21.4189C119.941 17.2383 119.941 14.2172 118.181 12.0084" fill="white"/>
<path d="M12.8547 29.2976C9.02962 29.2976 6.9055 28.8237 6.18618 27.8082C5.43301 26.7673 5.43301 24.3724 5.43301 21.055C5.43301 17.7377 5.43301 15.3428 6.18618 14.3019C6.91397 13.2864 9.04655 12.8209 12.8547 12.8209L19.7095 12.9394V9.04658C18.2793 8.80117 14.9111 8.56421 12.8547 8.56421C7.88717 8.56421 3.80818 9.08889 1.76023 11.6531C1.61412e-06 13.8618 0 16.883 0 21.0635C0 25.244 1.61412e-06 28.2652 1.76023 30.4739C3.79972 33.0381 7.88717 33.5628 12.8547 33.5628C15.1312 33.5628 18.0846 33.4528 19.8956 33.0804V29.1876L12.8547 29.3061V29.2976Z" fill="white"/>
<path d="M12.8547 29.2976C9.02962 29.2976 6.9055 28.8237 6.18618 27.8082C5.43301 26.7673 5.43301 24.3724 5.43301 21.055C5.43301 17.7377 5.43301 15.3428 6.18618 14.3019C6.91397 13.2864 9.04655 12.8209 12.8547 12.8209L19.7095 12.9394V9.04658C18.2793 8.80117 14.9111 8.56421 12.8547 8.56421C7.88717 8.56421 3.80818 9.08889 1.76023 11.6531C1.61412e-06 13.8618 0 16.883 0 21.0635C0 25.244 1.61412e-06 28.2652 1.76023 30.4739C3.79972 33.0381 7.88717 33.5628 12.8547 33.5628C15.1312 33.5628 18.0846 33.4528 19.8956 33.0804V29.1876L12.8547 29.3061V29.2976Z" fill="white"/>
<path d="M58.6798 5.80536C59.8308 5.80536 60.7024 5.68689 61.1763 5.08604C61.5825 4.56982 61.5825 3.86742 61.5825 2.90268C61.5825 1.93794 61.5825 1.22708 61.1763 0.719325C60.7024 0.126941 59.8308 0 58.6798 0C57.5289 0 56.6573 0.118479 56.1834 0.719325C55.7772 1.23555 55.7772 1.93794 55.7772 2.90268C55.7772 3.86742 55.7772 4.57828 56.1834 5.08604C56.6573 5.67842 57.5289 5.80536 58.6798 5.80536Z" fill="white"/>
<path d="M28.6037 5.80536C29.7546 5.80536 30.6262 5.68689 31.1001 5.08604C31.5064 4.56982 31.5063 3.86742 31.5063 2.90268C31.5063 1.93794 31.5064 1.22708 31.1001 0.719325C30.6262 0.126941 29.7546 0 28.6037 0C27.4528 0 26.5811 0.118479 26.1072 0.719325C25.701 1.23555 25.701 1.93794 25.701 2.90268C25.701 3.86742 25.701 4.57828 26.1072 5.08604C26.5811 5.67842 27.4528 5.80536 28.6037 5.80536Z" fill="white"/>
<path d="M51.6813 9.08039C50.5303 8.74189 46.5614 8.59802 46.4175 8.59802C42.6009 8.59802 39.4697 9.12271 37.8956 11.6869C36.6347 13.7433 36.5501 16.5106 36.5416 20.2511C36.5416 20.2595 36.5416 29.213 36.5416 32.2849V33.3004H41.6192V21.0465C41.6192 17.7292 41.6192 15.3343 42.3724 14.2934C42.9817 13.4471 44.5557 12.8463 47.3061 12.8463C50.0564 12.8463 51.6813 12.9563 51.6813 12.9563V9.07193V9.08039Z" fill="white"/>
<path d="M58.6798 5.80536C59.8308 5.80536 60.7024 5.68689 61.1763 5.08604C61.5825 4.56982 61.5825 3.86742 61.5825 2.90268C61.5825 1.93794 61.5825 1.22708 61.1763 0.719325C60.7024 0.126941 59.8308 0 58.6798 0C57.5289 0 56.6573 0.118479 56.1834 0.719325C55.7772 1.23555 55.7772 1.93794 55.7772 2.90268C55.7772 3.86742 55.7772 4.57828 56.1834 5.08604C56.6573 5.67842 57.5289 5.80536 58.6798 5.80536Z" fill="white"/>
<path d="M89.3907 11.6785C87.3512 9.11428 84.0169 8.5896 79.0578 8.5896C74.0987 8.5896 70.7644 9.11428 68.7249 11.6785C66.9647 13.8872 66.9647 16.8999 66.9647 21.072C66.9647 25.244 66.9647 28.2567 68.7249 30.4655C69.0635 30.8886 69.4358 31.261 69.8505 31.5741C71.0014 30.3809 71.9069 29.0353 72.5839 27.5036C72.6516 27.3766 72.7278 27.2412 72.7955 27.1143C72.3893 25.8703 72.3893 23.78 72.3893 21.072C72.3893 17.7631 72.3893 15.3682 73.134 14.3273C73.8618 13.3117 75.2327 12.8463 79.0493 12.8463C82.866 12.8463 84.2369 13.3202 84.9647 14.3273C85.7094 15.3682 85.7094 17.7631 85.7094 21.072C85.7094 24.3809 85.7094 26.7758 84.9647 27.8167C84.2369 28.8322 82.866 29.2976 79.0493 29.2976C78.9478 29.2976 78.8547 29.2976 78.7616 29.2976C77.9577 30.7871 77.0945 32.1749 76.1297 33.4612C77.0352 33.5205 78.0084 33.5459 79.0493 33.5459C84.0084 33.5459 87.3427 33.0212 89.3822 30.457C91.1424 28.2483 91.1424 25.2356 91.1424 21.0635C91.1424 16.8914 91.1424 13.8787 89.3822 11.67L89.3907 11.6785Z" fill="white"/>
</svg>
